<mxfile host="65bd71144e">
    <diagram id="ZUENsiRe6ovU90ceGxjv" name="Page-1">
        <mxGraphModel dx="543" dy="682" grid="1" gridSize="10" guides="1" tooltips="1" connect="1" arrows="1" fold="1" page="0" pageScale="1" pageWidth="850" pageHeight="1100" background="#37474f" math="0" shadow="0">
            <root>
                <mxCell id="0"/>
                <mxCell id="1" parent="0"/>
                <mxCell id="62" value="" style="rounded=0;whiteSpace=wrap;html=1;fontSize=8;fontColor=#FF0080;strokeColor=none;strokeWidth=2;fillColor=#37474F;" vertex="1" parent="1">
                    <mxGeometry x="165" y="20" width="230" height="30" as="geometry"/>
                </mxCell>
                <mxCell id="61" value="" style="rounded=0;whiteSpace=wrap;html=1;fontSize=8;fontColor=#FF0080;strokeColor=none;strokeWidth=2;fillColor=#37474F;" vertex="1" parent="1">
                    <mxGeometry x="390" y="20" width="80" height="230" as="geometry"/>
                </mxCell>
                <mxCell id="60" value="" style="rounded=0;whiteSpace=wrap;html=1;fontSize=8;fontColor=#FF0080;strokeColor=none;strokeWidth=2;fillColor=#37474F;" vertex="1" parent="1">
                    <mxGeometry x="170" y="230" width="230" height="20" as="geometry"/>
                </mxCell>
                <mxCell id="59" value="" style="rounded=0;whiteSpace=wrap;html=1;fontSize=8;fontColor=#FF0080;strokeColor=none;strokeWidth=2;fillColor=#37474F;" vertex="1" parent="1">
                    <mxGeometry x="90" y="20" width="80" height="230" as="geometry"/>
                </mxCell>
                <mxCell id="7" value="" style="rounded=0;whiteSpace=wrap;html=1;strokeColor=#FF0080;fillColor=none;dashed=1;strokeWidth=2;" vertex="1" parent="1">
                    <mxGeometry x="170" y="50" width="220" height="180" as="geometry"/>
                </mxCell>
                <mxCell id="3" value="" style="rounded=0;whiteSpace=wrap;html=1;fillColor=none;" vertex="1" parent="1">
                    <mxGeometry x="200" y="80" width="160" height="120" as="geometry"/>
                </mxCell>
                <mxCell id="4" value="" style="rounded=0;whiteSpace=wrap;html=1;fillColor=none;strokeColor=#33FF33;" vertex="1" parent="1">
                    <mxGeometry x="170" y="50" width="70" height="70" as="geometry"/>
                </mxCell>
                <mxCell id="6" value="" style="rounded=0;whiteSpace=wrap;html=1;strokeColor=#3333FF;fillColor=none;" vertex="1" parent="1">
                    <mxGeometry x="200" y="80" width="10" height="10" as="geometry"/>
                </mxCell>
                <mxCell id="10" value="&lt;font color=&quot;#000000&quot;&gt;Lin2&lt;/font&gt;" style="rounded=1;whiteSpace=wrap;html=1;strokeColor=#b46504;fillColor=#fad7ac;rotation=-90;" vertex="1" parent="1">
                    <mxGeometry x="160" y="-90" width="100" height="20" as="geometry"/>
                </mxCell>
                <mxCell id="20" style="edgeStyle=none;html=1;exitX=0.5;exitY=1;exitDx=0;exitDy=0;entryX=0;entryY=0.5;entryDx=0;entryDy=0;fontSize=8;fontColor=#000000;strokeColor=#FFFFFF;" edge="1" parent="1" source="11" target="16">
                    <mxGeometry relative="1" as="geometry"/>
                </mxCell>
                <mxCell id="11" value="&lt;font color=&quot;#000000&quot;&gt;Lin1&lt;/font&gt;" style="rounded=1;whiteSpace=wrap;html=1;strokeColor=#b46504;fillColor=#fad7ac;rotation=-90;" vertex="1" parent="1">
                    <mxGeometry x="80" y="-90" width="100" height="20" as="geometry"/>
                </mxCell>
                <mxCell id="18" value="" style="group" vertex="1" connectable="0" parent="1">
                    <mxGeometry x="160" y="-90" width="20" height="20" as="geometry"/>
                </mxCell>
                <mxCell id="16" value="" style="rounded=0;whiteSpace=wrap;html=1;strokeColor=#ae4132;fillColor=#fad9d5;" vertex="1" parent="18">
                    <mxGeometry width="20" height="20" as="geometry"/>
                </mxCell>
                <mxCell id="13" value="" style="endArrow=none;html=1;fontColor=#000000;strokeColor=#000000;exitX=0;exitY=0.5;exitDx=0;exitDy=0;" edge="1" parent="18">
                    <mxGeometry width="50" height="50" relative="1" as="geometry">
                        <mxPoint y="14.835000000000006" as="sourcePoint"/>
                        <mxPoint x="10" y="14.920000000000002" as="targetPoint"/>
                    </mxGeometry>
                </mxCell>
                <mxCell id="14" value="" style="endArrow=none;html=1;fontColor=#000000;strokeColor=#000000;entryX=1;entryY=0.25;entryDx=0;entryDy=0;" edge="1" parent="18" target="16">
                    <mxGeometry width="50" height="50" relative="1" as="geometry">
                        <mxPoint x="10" y="15" as="sourcePoint"/>
                        <mxPoint x="15.5" y="9.5" as="targetPoint"/>
                    </mxGeometry>
                </mxCell>
                <mxCell id="21" style="edgeStyle=none;html=1;exitX=1;exitY=0.5;exitDx=0;exitDy=0;entryX=0.5;entryY=0;entryDx=0;entryDy=0;fontSize=8;fontColor=#000000;strokeColor=#FFFFFF;" edge="1" parent="1" source="16" target="10">
                    <mxGeometry relative="1" as="geometry"/>
                </mxCell>
                <mxCell id="25" value="" style="group" vertex="1" connectable="0" parent="1">
                    <mxGeometry x="240" y="-90" width="20" height="20" as="geometry"/>
                </mxCell>
                <mxCell id="23" value="" style="shape=or;whiteSpace=wrap;html=1;fontSize=8;strokeColor=#ae4132;fillColor=#fad9d5;rotation=-90;" vertex="1" parent="25">
                    <mxGeometry x="2.5" y="-3.333333333333333" width="15" height="26.666666666666664" as="geometry"/>
                </mxCell>
                <mxCell id="24" value="" style="curved=1;endArrow=none;html=1;fontSize=8;fontColor=#000000;strokeColor=#000000;endFill=0;entryX=0.7;entryY=0.9;entryDx=0;entryDy=0;entryPerimeter=0;exitX=0;exitY=0;exitDx=0;exitDy=0;exitPerimeter=0;" edge="1" parent="25" source="23" target="23">
                    <mxGeometry width="50" height="50" relative="1" as="geometry">
                        <mxPoint x="-10" y="13.333333333333332" as="sourcePoint"/>
                        <mxPoint y="6.666666666666666" as="targetPoint"/>
                        <Array as="points">
                            <mxPoint x="5" y="20"/>
                            <mxPoint x="10" y="6"/>
                        </Array>
                    </mxGeometry>
                </mxCell>
                <mxCell id="27" style="edgeStyle=none;html=1;fontSize=8;fontColor=#000000;endArrow=classic;endFill=1;strokeColor=#FFFFFF;" edge="1" parent="1" source="23">
                    <mxGeometry relative="1" as="geometry">
                        <mxPoint x="280" y="-80" as="targetPoint"/>
                    </mxGeometry>
                </mxCell>
                <mxCell id="28" style="edgeStyle=none;html=1;fontSize=8;fontColor=#000000;endArrow=none;endFill=0;strokeColor=#FFFFFF;startArrow=classic;startFill=1;" edge="1" parent="1" source="23" target="10">
                    <mxGeometry relative="1" as="geometry"/>
                </mxCell>
                <mxCell id="29" value="" style="rounded=0;whiteSpace=wrap;html=1;fontSize=8;fontColor=#000000;strokeColor=#3333FF;fillColor=#37474F;" vertex="1" parent="1">
                    <mxGeometry x="280" y="-130" width="20" height="100" as="geometry"/>
                </mxCell>
                <mxCell id="30" value="" style="endArrow=none;html=1;fontSize=8;fontColor=#000000;strokeColor=#3333FF;" edge="1" parent="1">
                    <mxGeometry width="50" height="50" relative="1" as="geometry">
                        <mxPoint x="280" y="-110" as="sourcePoint"/>
                        <mxPoint x="300" y="-110" as="targetPoint"/>
                    </mxGeometry>
                </mxCell>
                <mxCell id="31" value="" style="endArrow=none;html=1;fontSize=8;fontColor=#000000;strokeColor=#3333FF;" edge="1" parent="1">
                    <mxGeometry width="50" height="50" relative="1" as="geometry">
                        <mxPoint x="280" y="-90.23" as="sourcePoint"/>
                        <mxPoint x="300" y="-90.23" as="targetPoint"/>
                    </mxGeometry>
                </mxCell>
                <mxCell id="32" value="" style="endArrow=none;html=1;fontSize=8;fontColor=#000000;strokeColor=#3333FF;" edge="1" parent="1">
                    <mxGeometry width="50" height="50" relative="1" as="geometry">
                        <mxPoint x="280" y="-70" as="sourcePoint"/>
                        <mxPoint x="300" y="-70" as="targetPoint"/>
                    </mxGeometry>
                </mxCell>
                <mxCell id="33" value="" style="endArrow=none;html=1;fontSize=8;fontColor=#000000;strokeColor=#3333FF;" edge="1" parent="1">
                    <mxGeometry width="50" height="50" relative="1" as="geometry">
                        <mxPoint x="280" y="-50" as="sourcePoint"/>
                        <mxPoint x="300" y="-50" as="targetPoint"/>
                    </mxGeometry>
                </mxCell>
                <mxCell id="34" value="0.74" style="text;html=1;strokeColor=none;fillColor=none;align=center;verticalAlign=middle;whiteSpace=wrap;rounded=0;fontSize=8;fontColor=#FFFFFF;" vertex="1" parent="1">
                    <mxGeometry x="280" y="-130" width="20" height="20" as="geometry"/>
                </mxCell>
                <mxCell id="35" value="0.95" style="text;html=1;strokeColor=none;fillColor=none;align=center;verticalAlign=middle;whiteSpace=wrap;rounded=0;fontSize=8;fontColor=#FFFFFF;" vertex="1" parent="1">
                    <mxGeometry x="280" y="-110" width="20" height="20" as="geometry"/>
                </mxCell>
                <mxCell id="45" style="edgeStyle=orthogonalEdgeStyle;html=1;exitX=1;exitY=0.5;exitDx=0;exitDy=0;fontSize=8;fontColor=#FFFFFF;startArrow=none;startFill=0;endArrow=classic;endFill=1;strokeColor=default;strokeWidth=1;entryX=0;entryY=0.5;entryDx=0;entryDy=0;" edge="1" parent="1" source="36" target="39">
                    <mxGeometry relative="1" as="geometry">
                        <mxPoint x="350" y="-40" as="targetPoint"/>
                        <Array as="points">
                            <mxPoint x="320" y="-80"/>
                            <mxPoint x="320" y="-80"/>
                        </Array>
                    </mxGeometry>
                </mxCell>
                <mxCell id="36" value="0.01" style="text;html=1;strokeColor=none;fillColor=none;align=center;verticalAlign=middle;whiteSpace=wrap;rounded=0;fontSize=8;fontColor=#FFFFFF;" vertex="1" parent="1">
                    <mxGeometry x="280" y="-90" width="20" height="20" as="geometry"/>
                </mxCell>
                <mxCell id="37" value="..." style="text;html=1;strokeColor=none;fillColor=none;align=center;verticalAlign=middle;whiteSpace=wrap;rounded=0;fontSize=8;fontColor=#FFFFFF;" vertex="1" parent="1">
                    <mxGeometry x="280" y="-70" width="20" height="20" as="geometry"/>
                </mxCell>
                <mxCell id="38" value="0.23" style="text;html=1;strokeColor=none;fillColor=none;align=center;verticalAlign=middle;whiteSpace=wrap;rounded=0;fontSize=8;fontColor=#FFFFFF;" vertex="1" parent="1">
                    <mxGeometry x="280" y="-50" width="20" height="20" as="geometry"/>
                </mxCell>
                <mxCell id="44" value="" style="group" vertex="1" connectable="0" parent="1">
                    <mxGeometry x="320" y="-100" width="40" height="40" as="geometry"/>
                </mxCell>
                <mxCell id="39" value="" style="whiteSpace=wrap;html=1;aspect=fixed;fontSize=8;strokeColor=#ae4132;fillColor=#fad9d5;" vertex="1" parent="44">
                    <mxGeometry width="40" height="40" as="geometry"/>
                </mxCell>
                <mxCell id="40" value="" style="endArrow=none;html=1;fontSize=8;fontColor=#FFFFFF;strokeColor=#000000;exitX=0;exitY=0.75;exitDx=0;exitDy=0;" edge="1" parent="44" source="39">
                    <mxGeometry width="50" height="50" relative="1" as="geometry">
                        <mxPoint x="55" y="80" as="sourcePoint"/>
                        <mxPoint x="20" y="30" as="targetPoint"/>
                    </mxGeometry>
                </mxCell>
                <mxCell id="41" value="" style="endArrow=none;html=1;fontSize=8;fontColor=#FFFFFF;strokeColor=#000000;entryX=1.001;entryY=1.2;entryDx=0;entryDy=0;entryPerimeter=0;" edge="1" parent="44" target="40">
                    <mxGeometry width="50" height="50" relative="1" as="geometry">
                        <mxPoint x="20" y="10" as="sourcePoint"/>
                        <mxPoint x="19.939999999999998" y="30" as="targetPoint"/>
                        <Array as="points">
                            <mxPoint x="20" y="10"/>
                        </Array>
                    </mxGeometry>
                </mxCell>
                <mxCell id="42" value="" style="endArrow=none;html=1;fontSize=8;fontColor=#FFFFFF;strokeColor=#000000;exitX=0;exitY=0.75;exitDx=0;exitDy=0;" edge="1" parent="44">
                    <mxGeometry width="50" height="50" relative="1" as="geometry">
                        <mxPoint x="20" y="10.000000000000002" as="sourcePoint"/>
                        <mxPoint x="40" y="10.000000000000002" as="targetPoint"/>
                    </mxGeometry>
                </mxCell>
                <mxCell id="43" value="" style="curved=1;endArrow=none;html=1;fontSize=8;fontColor=#FFFFFF;strokeColor=#000000;dashed=1;strokeWidth=0.5;endFill=0;entryX=1;entryY=1;entryDx=0;entryDy=0;" edge="1" parent="44" target="39">
                    <mxGeometry width="50" height="50" relative="1" as="geometry">
                        <mxPoint y="40" as="sourcePoint"/>
                        <mxPoint x="50" y="20" as="targetPoint"/>
                        <Array as="points">
                            <mxPoint x="5" y="40"/>
                            <mxPoint x="20" y="10"/>
                            <mxPoint x="35" y="40"/>
                        </Array>
                    </mxGeometry>
                </mxCell>
                <mxCell id="47" value="" style="curved=1;endArrow=classic;html=1;fontSize=8;fontColor=#FFFFFF;strokeColor=default;strokeWidth=0.5;dashed=1;exitX=1;exitY=0.5;exitDx=0;exitDy=0;entryX=0.938;entryY=0.417;entryDx=0;entryDy=0;entryPerimeter=0;" edge="1" parent="1" source="6" target="3">
                    <mxGeometry width="50" height="50" relative="1" as="geometry">
                        <mxPoint x="180" y="90" as="sourcePoint"/>
                        <mxPoint x="440" y="200" as="targetPoint"/>
                        <Array as="points">
                            <mxPoint x="350" y="85"/>
                            <mxPoint x="350" y="110"/>
                            <mxPoint x="230" y="110"/>
                            <mxPoint x="200" y="120"/>
                            <mxPoint x="230" y="130"/>
                        </Array>
                    </mxGeometry>
                </mxCell>
                <mxCell id="48" value="Possible Tiles" style="rounded=0;whiteSpace=wrap;html=1;fontSize=8;fontColor=#FFFFFF;strokeColor=#3333FF;strokeWidth=2;fillColor=#37474F;rotation=-90;" vertex="1" parent="1">
                    <mxGeometry x="340" y="-90" width="100" height="20" as="geometry"/>
                </mxCell>
                <mxCell id="52" style="edgeStyle=orthogonalEdgeStyle;html=1;exitX=1;exitY=0.5;exitDx=0;exitDy=0;entryX=0.5;entryY=0;entryDx=0;entryDy=0;fontSize=8;fontColor=#FFFFFF;startArrow=none;startFill=0;endArrow=classic;endFill=1;strokeColor=default;strokeWidth=1;" edge="1" parent="1" source="50" target="11">
                    <mxGeometry relative="1" as="geometry"/>
                </mxCell>
                <mxCell id="50" value="7x7&lt;br&gt;Collapsed Tiles&amp;nbsp;&lt;br&gt;&amp;amp;&lt;br&gt;Unknown Tokens" style="whiteSpace=wrap;html=1;aspect=fixed;fontSize=8;fontColor=#FFFFFF;strokeColor=#33FF33;strokeWidth=2;fillColor=#37474F;" vertex="1" parent="1">
                    <mxGeometry x="10" y="-120" width="80" height="80" as="geometry"/>
                </mxCell>
                <mxCell id="51" style="edgeStyle=orthogonalEdgeStyle;html=1;exitX=1;exitY=0.5;exitDx=0;exitDy=0;entryX=0.5;entryY=0;entryDx=0;entryDy=0;fontSize=8;fontColor=#FFFFFF;startArrow=none;startFill=0;endArrow=classic;endFill=1;strokeColor=default;strokeWidth=1;" edge="1" parent="1" source="39" target="48">
                    <mxGeometry relative="1" as="geometry"/>
                </mxCell>
                <mxCell id="53" value="&lt;font color=&quot;#33ff33&quot;&gt;Network&lt;/font&gt;" style="text;html=1;strokeColor=none;fillColor=none;align=center;verticalAlign=middle;whiteSpace=wrap;rounded=0;fontSize=8;fontColor=#FFFFFF;" vertex="1" parent="1">
                    <mxGeometry x="170" y="50" width="50" height="20" as="geometry"/>
                </mxCell>
                <mxCell id="55" value="&lt;font color=&quot;#3333ff&quot;&gt;Output Vector&lt;/font&gt;" style="text;html=1;strokeColor=none;fillColor=none;align=center;verticalAlign=middle;whiteSpace=wrap;rounded=0;fontSize=8;fontColor=#33FF33;" vertex="1" parent="1">
                    <mxGeometry x="100" y="60" width="60" height="30" as="geometry"/>
                </mxCell>
                <mxCell id="56" value="" style="endArrow=classic;html=1;fontSize=8;fontColor=#3333FF;strokeColor=#3333FF;strokeWidth=1;exitX=1;exitY=0.5;exitDx=0;exitDy=0;entryX=0;entryY=0.5;entryDx=0;entryDy=0;" edge="1" parent="1" source="55" target="6">
                    <mxGeometry width="50" height="50" relative="1" as="geometry">
                        <mxPoint x="220" y="180" as="sourcePoint"/>
                        <mxPoint x="270" y="130" as="targetPoint"/>
                    </mxGeometry>
                </mxCell>
                <mxCell id="57" value="&lt;font color=&quot;#ffffff&quot;&gt;Map of collapsed tiles and unknowns&lt;/font&gt;" style="text;html=1;strokeColor=none;fillColor=none;align=center;verticalAlign=middle;whiteSpace=wrap;rounded=0;fontSize=8;fontColor=#3333FF;" vertex="1" parent="1">
                    <mxGeometry x="300" y="170" width="60" height="30" as="geometry"/>
                </mxCell>
                <mxCell id="58" value="&lt;font color=&quot;#ff0080&quot;&gt;Unknown Tile Buffer&lt;/font&gt;" style="text;html=1;strokeColor=none;fillColor=none;align=center;verticalAlign=middle;whiteSpace=wrap;rounded=0;fontSize=8;fontColor=#FFFFFF;" vertex="1" parent="1">
                    <mxGeometry x="330" y="200" width="60" height="30" as="geometry"/>
                </mxCell>
            </root>
        </mxGraphModel>
    </diagram>
</mxfile>